<mxfile host="65bd71144e">
    <diagram id="wOsJOBugnTomOUErXI_r" name="Page-1">
        <mxGraphModel dx="619" dy="465" grid="1" gridSize="10" guides="1" tooltips="1" connect="1" arrows="1" fold="1" page="1" pageScale="1" pageWidth="850" pageHeight="1100" math="0" shadow="0">
            <root>
                <mxCell id="0"/>
                <mxCell id="1" parent="0"/>
                <mxCell id="3" value="Vertical Container" style="swimlane;startSize=20;" vertex="1" parent="1">
                    <mxGeometry x="110" y="80" width="610" height="410" as="geometry"/>
                </mxCell>
                <mxCell id="4" value="" style="rounded=0;whiteSpace=wrap;html=1;" vertex="1" parent="3">
                    <mxGeometry x="490" y="20" width="120" height="380" as="geometry"/>
                </mxCell>
                <mxCell id="5" value="CHAT BOX" style="rounded=0;whiteSpace=wrap;html=1;" vertex="1" parent="3">
                    <mxGeometry x="490" y="20" width="120" height="30" as="geometry"/>
                </mxCell>
            </root>
        </mxGraphModel>
    </diagram>
</mxfile>